<?xml version="1.0" encoding="UTF-8"?>
<svg xmlns="http://www.w3.org/2000/svg" xmlns:xlink="http://www.w3.org/1999/xlink" viewBox="0 0 100 100" version="1.1">
<g id="surface1">
<path d="M 79.9375 75.4375 C 84.144531 82.058594 86.125 85.574219 86.125 89.242188 C 86.125 96.484375 80.746094 99.996094 73.5 99.996094 C 70.304688 99.996094 68.246094 99.992188 63.035156 97.28125 C 63.035156 97.28125 59.65625 94.191406 51.753906 94.507812 C 43.78125 94.191406 40.402344 97.320312 40.402344 97.320312 C 35.191406 100.027344 33.203125 100 30.011719 100 C 22.765625 100 17.382812 96.492188 17.382812 89.246094 C 17.382812 85.578125 19.371094 82.066406 23.574219 75.441406 C 23.574219 75.441406 31.523438 62.246094 38.40625 56.039062 C 43.382812 51.558594 50.636719 51.574219 50.636719 51.574219 L 52.875 51.574219 L 52.875 51.570312 C 52.875 51.570312 60.449219 51.554688 65.113281 56.039062 C 71.785156 62.46875 79.9375 75.441406 79.9375 75.4375 Z M 34.050781 42.75 C 41.628906 42.75 47.769531 33.179688 47.769531 21.375 C 47.769531 9.570312 41.628906 0 34.050781 0 C 26.476562 0 20.335938 9.570312 20.335938 21.375 C 20.335938 33.179688 26.476562 42.75 34.050781 42.75 Z M 20.90625 63.449219 C 26.492188 60.871094 27.765625 51.730469 23.75 43.035156 C 19.734375 34.335938 11.953125 29.371094 6.371094 31.949219 C 0.785156 34.523438 -0.484375 43.664062 3.527344 52.363281 C 7.542969 61.0625 15.324219 66.023438 20.90625 63.449219 Z M 65.941406 42.75 C 73.519531 42.75 79.660156 33.179688 79.660156 21.375 C 79.660156 9.570312 73.519531 0 65.941406 0 C 58.367188 0 52.226562 9.570312 52.226562 21.375 C 52.226562 33.179688 58.367188 42.75 65.941406 42.75 Z M 93.628906 31.945312 C 88.042969 29.367188 80.265625 34.332031 76.25 43.03125 C 72.234375 51.730469 73.507812 60.871094 79.09375 63.449219 C 84.679688 66.023438 92.457031 61.0625 96.472656 52.363281 C 100.488281 43.664062 99.214844 34.523438 93.628906 31.945312 Z M 93.628906 31.945312 "/>
</g>
</svg>
